<svg xmlns="http://www.w3.org/2000/svg" viewBox="0 0 480 120" width="480" height="120">
<rect width="480" height="120" fill="none"/>
<polyline points="16.0,104.0 44.0,104.0 72.0,104.0 100.0,104.0 128.0,104.0 156.0,104.0 184.0,16.0 212.0,91.4 240.0,104.0 268.0,66.3 296.0,91.4 324.0,78.9 352.0,41.1 380.0,104.0 408.0,104.0 436.0,104.0 464.0,78.9" fill="none" stroke="#3d7ab5" stroke-width="2"/>
<circle cx="16.0" cy="104.0" r="3" fill="#3d7ab5"/><circle cx="44.0" cy="104.0" r="3" fill="#3d7ab5"/><circle cx="72.0" cy="104.0" r="3" fill="#3d7ab5"/><circle cx="100.0" cy="104.0" r="3" fill="#3d7ab5"/><circle cx="128.0" cy="104.0" r="3" fill="#3d7ab5"/><circle cx="156.0" cy="104.0" r="3" fill="#3d7ab5"/><circle cx="184.0" cy="16.0" r="3" fill="#3d7ab5"/><circle cx="212.0" cy="91.4" r="3" fill="#3d7ab5"/><circle cx="240.0" cy="104.0" r="3" fill="#3d7ab5"/><circle cx="268.0" cy="66.3" r="3" fill="#3d7ab5"/><circle cx="296.0" cy="91.4" r="3" fill="#3d7ab5"/><circle cx="324.0" cy="78.9" r="3" fill="#3d7ab5"/><circle cx="352.0" cy="41.1" r="3" fill="#3d7ab5"/><circle cx="380.0" cy="104.0" r="3" fill="#3d7ab5"/><circle cx="408.0" cy="104.0" r="3" fill="#3d7ab5"/><circle cx="436.0" cy="104.0" r="3" fill="#3d7ab5"/><circle cx="464.0" cy="78.9" r="3" fill="#3d7ab5"/>
<text x="16" y="118" font-family="ui-monospace,monospace" font-size="10" fill="#8a8d99">entities placed per run (17 runs)</text>
</svg>