<svg xmlns="http://www.w3.org/2000/svg" viewBox="0 0 720 220" width="720" height="220" font-family="-apple-system,Helvetica,Arial,sans-serif">
<rect width="720" height="220" fill="#ffffff" rx="10"/>
<line x1="46" y1="184.0" x2="674" y2="184.0" stroke="#ececf1"/><line x1="46" y1="145.0" x2="674" y2="145.0" stroke="#ececf1"/><line x1="46" y1="106.0" x2="674" y2="106.0" stroke="#ececf1"/><line x1="46" y1="67.0" x2="674" y2="67.0" stroke="#ececf1"/><line x1="46" y1="28.0" x2="674" y2="28.0" stroke="#ececf1"/><line x1="539.0" y1="28" x2="539.0" y2="184" stroke="#c9ccd6" stroke-dasharray="2 3"/><text x="539.0" y="20" text-anchor="middle" font-size="9" fill="#8a8d99">v1.2.0</text><line x1="559.0" y1="28" x2="559.0" y2="184" stroke="#c9ccd6" stroke-dasharray="2 3"/><text x="559.0" y="20" text-anchor="middle" font-size="9" fill="#8a8d99">v1.2.1</text><line x1="563.6" y1="28" x2="563.6" y2="184" stroke="#c9ccd6" stroke-dasharray="2 3"/><text x="563.6" y="20" text-anchor="middle" font-size="9" fill="#8a8d99">v1.3.0</text><line x1="575.9" y1="28" x2="575.9" y2="184" stroke="#c9ccd6" stroke-dasharray="2 3"/><text x="575.9" y="20" text-anchor="middle" font-size="9" fill="#8a8d99">v1.4.0</text><line x1="582.9" y1="28" x2="582.9" y2="184" stroke="#c9ccd6" stroke-dasharray="2 3"/><text x="582.9" y="20" text-anchor="middle" font-size="9" fill="#8a8d99">v1.5.0</text><line x1="611.9" y1="28" x2="611.9" y2="184" stroke="#c9ccd6" stroke-dasharray="2 3"/><text x="611.9" y="20" text-anchor="middle" font-size="9" fill="#8a8d99">v1.6.0</text>
<polyline points="46.0,99.2 81.0,99.0 115.6,99.0 150.6,98.2 241.1,98.2 281.8,96.7 407.2,81.3 430.7,81.3 458.9,81.0 493.9,76.1 527.3,73.3 539.0,72.9 559.0,70.1 561.3,70.1 563.6,68.0 575.9,39.8 582.9,28.5 611.9,28.1 649.8,28.0 674.0,29.4" fill="none" stroke="#d98a2b" stroke-width="2" stroke-linejoin="round"/>
<polyline points="46.0,100.7 81.0,96.4 115.6,96.4 150.6,92.1 241.1,85.7 281.8,79.3 407.2,40.8 430.7,32.3 458.9,28.0 493.9,28.0 527.3,28.0 539.0,28.0 559.0,28.0 561.3,28.0 563.6,28.0 575.9,28.0 582.9,28.0 611.9,28.0 649.8,28.0 674.0,28.0" fill="none" stroke="#3d7ab5" stroke-width="2.4" stroke-linejoin="round"/>
<text x="38" y="32" text-anchor="end" font-size="10" fill="#3d7ab5">73</text><text x="38" y="188" text-anchor="end" font-size="10" fill="#3d7ab5">0</text>
<text x="682" y="32" font-size="10" fill="#d98a2b">4264</text><text x="682" y="188" font-size="10" fill="#d98a2b">0</text>
<text x="46" y="208" font-size="10" fill="#8a8d99">Oct 2 11:09</text><text x="674" y="208" text-anchor="end" font-size="10" fill="#8a8d99">Oct 2 20:08</text>
<text x="360.0" y="208" text-anchor="middle" font-size="10" fill="#8a8d99"><tspan fill="#3d7ab5">techs researched</tspan>  and  <tspan fill="#d98a2b">entities built</tspan>, one row per commit</text>
</svg>