<svg xmlns="http://www.w3.org/2000/svg" viewBox="0 0 720 220" width="720" height="220" font-family="-apple-system,Helvetica,Arial,sans-serif">
<rect width="720" height="220" fill="#ffffff" rx="10"/>
<line x1="46" y1="184.0" x2="674" y2="184.0" stroke="#ececf1"/><line x1="46" y1="145.0" x2="674" y2="145.0" stroke="#ececf1"/><line x1="46" y1="106.0" x2="674" y2="106.0" stroke="#ececf1"/><line x1="46" y1="67.0" x2="674" y2="67.0" stroke="#ececf1"/><line x1="46" y1="28.0" x2="674" y2="28.0" stroke="#ececf1"/><line x1="622.7" y1="28" x2="622.7" y2="184" stroke="#c9ccd6" stroke-dasharray="2 3"/><text x="622.7" y="20" text-anchor="middle" font-size="9" fill="#8a8d99">v1.2.0</text><line x1="646.1" y1="28" x2="646.1" y2="184" stroke="#c9ccd6" stroke-dasharray="2 3"/><text x="646.1" y="20" text-anchor="middle" font-size="9" fill="#8a8d99">v1.2.1</text><line x1="651.4" y1="28" x2="651.4" y2="184" stroke="#c9ccd6" stroke-dasharray="2 3"/><text x="651.4" y="20" text-anchor="middle" font-size="9" fill="#8a8d99">v1.3.0</text><line x1="665.8" y1="28" x2="665.8" y2="184" stroke="#c9ccd6" stroke-dasharray="2 3"/><text x="665.8" y="20" text-anchor="middle" font-size="9" fill="#8a8d99">v1.4.0</text><line x1="674.0" y1="28" x2="674.0" y2="184" stroke="#c9ccd6" stroke-dasharray="2 3"/><text x="674.0" y="20" text-anchor="middle" font-size="9" fill="#8a8d99">v1.5.0</text>
<polyline points="46.0,98.9 86.9,98.7 127.5,98.7 168.3,97.9 274.2,98.0 321.9,96.5 468.5,81.0 496.0,81.0 529.0,80.7 569.9,75.7 608.9,73.0 622.7,72.6 646.1,69.7 648.8,69.7 651.4,67.6 665.8,39.4 674.0,28.0" fill="none" stroke="#d98a2b" stroke-width="2" stroke-linejoin="round"/>
<polyline points="46.0,100.7 86.9,96.4 127.5,96.4 168.3,92.1 274.2,85.7 321.9,79.3 468.5,40.8 496.0,32.3 529.0,28.0 569.9,28.0 608.9,28.0 622.7,28.0 646.1,28.0 648.8,28.0 651.4,28.0 665.8,28.0 674.0,28.0" fill="none" stroke="#3d7ab5" stroke-width="2.4" stroke-linejoin="round"/>
<text x="38" y="32" text-anchor="end" font-size="10" fill="#3d7ab5">73</text><text x="38" y="188" text-anchor="end" font-size="10" fill="#3d7ab5">0</text>
<text x="682" y="32" font-size="10" fill="#d98a2b">4251</text><text x="682" y="188" font-size="10" fill="#d98a2b">0</text>
<text x="46" y="208" font-size="10" fill="#8a8d99">Oct 2 11:09</text><text x="674" y="208" text-anchor="end" font-size="10" fill="#8a8d99">Oct 2 18:50</text>
<text x="360.0" y="208" text-anchor="middle" font-size="10" fill="#8a8d99"><tspan fill="#3d7ab5">techs researched</tspan>  and  <tspan fill="#d98a2b">entities built</tspan>, one row per commit</text>
</svg>