<svg xmlns="http://www.w3.org/2000/svg" viewBox="0 0 720 220" width="720" height="220" font-family="-apple-system,Helvetica,Arial,sans-serif">
<rect width="720" height="220" fill="#ffffff" rx="10"/>
<line x1="46" y1="184.0" x2="674" y2="184.0" stroke="#ececf1"/><line x1="46" y1="145.0" x2="674" y2="145.0" stroke="#ececf1"/><line x1="46" y1="106.0" x2="674" y2="106.0" stroke="#ececf1"/><line x1="46" y1="67.0" x2="674" y2="67.0" stroke="#ececf1"/><line x1="46" y1="28.0" x2="674" y2="28.0" stroke="#ececf1"/><line x1="591.8" y1="28" x2="591.8" y2="184" stroke="#c9ccd6" stroke-dasharray="2 3"/><text x="591.8" y="20" text-anchor="middle" font-size="9" fill="#8a8d99">v1.6.0</text><line x1="615.6" y1="28" x2="615.6" y2="184" stroke="#c9ccd6" stroke-dasharray="2 3"/><text x="615.6" y="20" text-anchor="middle" font-size="9" fill="#8a8d99">v2.0.0</text><line x1="674.0" y1="28" x2="674.0" y2="184" stroke="#c9ccd6" stroke-dasharray="2 3"/><text x="674.0" y="20" text-anchor="middle" font-size="9" fill="#8a8d99">v2.1.0</text>
<polyline points="46.0,99.7 75.6,99.4 105.0,99.4 134.6,98.6 211.2,98.7 245.7,97.2 351.9,81.8 371.8,81.8 395.7,81.6 425.3,76.7 453.6,73.9 479.2,70.7 508.7,33.0 538.3,28.9 560.0,28.8 587.3,28.0 591.8,28.0 599.8,33.3 609.7,30.8 615.6,30.5 624.7,32.2 631.7,30.5 643.6,30.5 661.3,56.6 674.0,56.3" fill="none" stroke="#d98a2b" stroke-width="2" stroke-linejoin="round"/>
<polyline points="46.0,100.7 75.6,96.4 105.0,96.4 134.6,92.1 211.2,85.7 245.7,79.3 351.9,40.8 371.8,32.3 395.7,28.0 425.3,28.0 453.6,28.0 479.2,28.0 508.7,28.0 538.3,28.0 560.0,28.0 587.3,28.0 591.8,28.0 599.8,28.0 609.7,28.0 615.6,28.0 624.7,28.0 631.7,28.0 643.6,100.7 661.3,28.0 674.0,28.0" fill="none" stroke="#3d7ab5" stroke-width="2.4" stroke-linejoin="round"/>
<text x="38" y="32" text-anchor="end" font-size="10" fill="#3d7ab5">73</text><text x="38" y="188" text-anchor="end" font-size="10" fill="#3d7ab5">0</text>
<text x="682" y="32" font-size="10" fill="#d98a2b">4287</text><text x="682" y="188" font-size="10" fill="#d98a2b">0</text>
<text x="46" y="208" font-size="10" fill="#8a8d99">Oct 2 11:09</text><text x="674" y="208" text-anchor="end" font-size="10" fill="#8a8d99">Oct 2 21:45</text>
<text x="360.0" y="208" text-anchor="middle" font-size="10" fill="#8a8d99"><tspan fill="#3d7ab5">techs researched</tspan>  and  <tspan fill="#d98a2b">entities built</tspan>, one row per commit</text>
</svg>