<svg xmlns="http://www.w3.org/2000/svg" viewBox="0 0 720 220" width="720" height="220" font-family="-apple-system,Helvetica,Arial,sans-serif">
<rect width="720" height="220" fill="#ffffff" rx="10"/>
<line x1="46" y1="184.0" x2="674" y2="184.0" stroke="#ececf1"/><line x1="46" y1="145.0" x2="674" y2="145.0" stroke="#ececf1"/><line x1="46" y1="106.0" x2="674" y2="106.0" stroke="#ececf1"/><line x1="46" y1="67.0" x2="674" y2="67.0" stroke="#ececf1"/><line x1="46" y1="28.0" x2="674" y2="28.0" stroke="#ececf1"/><line x1="644.2" y1="28" x2="644.2" y2="184" stroke="#c9ccd6" stroke-dasharray="2 3"/><text x="644.2" y="20" text-anchor="middle" font-size="9" fill="#8a8d99">v1.2.0</text><line x1="668.5" y1="28" x2="668.5" y2="184" stroke="#c9ccd6" stroke-dasharray="2 3"/><text x="668.5" y="20" text-anchor="middle" font-size="9" fill="#8a8d99">v1.2.1</text><line x1="674.0" y1="28" x2="674.0" y2="184" stroke="#c9ccd6" stroke-dasharray="2 3"/><text x="674.0" y="20" text-anchor="middle" font-size="9" fill="#8a8d99">v1.3.0</text>
<polyline points="46.0,70.0 88.4,69.7 130.5,69.7 172.9,68.6 282.7,68.7 332.1,66.7 484.3,45.9 512.8,45.9 547.0,45.6 589.5,38.9 629.9,35.2 644.2,34.7 668.5,30.9 671.3,30.9 674.0,28.0" fill="none" stroke="#d98a2b" stroke-width="2" stroke-linejoin="round"/>
<polyline points="46.0,100.7 88.4,96.4 130.5,96.4 172.9,92.1 282.7,85.7 332.1,79.3 484.3,40.8 512.8,32.3 547.0,28.0 589.5,28.0 629.9,28.0 644.2,28.0 668.5,28.0 671.3,28.0 674.0,28.0" fill="none" stroke="#3d7ab5" stroke-width="2.4" stroke-linejoin="round"/>
<text x="38" y="32" text-anchor="end" font-size="10" fill="#3d7ab5">73</text><text x="38" y="188" text-anchor="end" font-size="10" fill="#3d7ab5">0</text>
<text x="682" y="32" font-size="10" fill="#d98a2b">3172</text><text x="682" y="188" font-size="10" fill="#d98a2b">0</text>
<text x="46" y="208" font-size="10" fill="#8a8d99">Oct 2 11:09</text><text x="674" y="208" text-anchor="end" font-size="10" fill="#8a8d99">Oct 2 18:33</text>
<text x="360.0" y="208" text-anchor="middle" font-size="10" fill="#8a8d99"><tspan fill="#3d7ab5">techs researched</tspan>  and  <tspan fill="#d98a2b">entities built</tspan>, one row per commit</text>
</svg>