<svg xmlns="http://www.w3.org/2000/svg" viewBox="0 0 720 220" width="720" height="220" font-family="-apple-system,Helvetica,Arial,sans-serif">
<rect width="720" height="220" fill="#ffffff" rx="10"/>
<line x1="46" y1="184.0" x2="674" y2="184.0" stroke="#ececf1"/><line x1="46" y1="145.0" x2="674" y2="145.0" stroke="#ececf1"/><line x1="46" y1="106.0" x2="674" y2="106.0" stroke="#ececf1"/><line x1="46" y1="67.0" x2="674" y2="67.0" stroke="#ececf1"/><line x1="46" y1="28.0" x2="674" y2="28.0" stroke="#ececf1"/><line x1="664.9" y1="28" x2="664.9" y2="184" stroke="#c9ccd6" stroke-dasharray="2 3"/><text x="664.9" y="20" text-anchor="middle" font-size="9" fill="#8a8d99">v1.6.0</text>
<polyline points="46.0,99.7 79.6,99.4 112.9,99.4 146.5,98.6 233.3,98.7 272.5,97.2 392.9,81.8 415.5,81.8 442.6,81.6 476.2,76.7 508.2,73.9 537.2,70.7 570.7,33.0 604.3,28.9 628.8,28.8 659.8,28.0 664.9,28.0 674.0,33.3" fill="none" stroke="#d98a2b" stroke-width="2" stroke-linejoin="round"/>
<polyline points="46.0,100.7 79.6,96.4 112.9,96.4 146.5,92.1 233.3,85.7 272.5,79.3 392.9,40.8 415.5,32.3 442.6,28.0 476.2,28.0 508.2,28.0 537.2,28.0 570.7,28.0 604.3,28.0 628.8,28.0 659.8,28.0 664.9,28.0 674.0,28.0" fill="none" stroke="#3d7ab5" stroke-width="2.4" stroke-linejoin="round"/>
<text x="38" y="32" text-anchor="end" font-size="10" fill="#3d7ab5">73</text><text x="38" y="188" text-anchor="end" font-size="10" fill="#3d7ab5">0</text>
<text x="682" y="32" font-size="10" fill="#d98a2b">4287</text><text x="682" y="188" font-size="10" fill="#d98a2b">0</text>
<text x="46" y="208" font-size="10" fill="#8a8d99">Oct 2 11:09</text><text x="674" y="208" text-anchor="end" font-size="10" fill="#8a8d99">Oct 2 20:30</text>
<text x="360.0" y="208" text-anchor="middle" font-size="10" fill="#8a8d99"><tspan fill="#3d7ab5">techs researched</tspan>  and  <tspan fill="#d98a2b">entities built</tspan>, one row per commit</text>
</svg>