<svg xmlns="http://www.w3.org/2000/svg" viewBox="0 0 720 220" width="720" height="220" font-family="-apple-system,Helvetica,Arial,sans-serif">
<rect width="720" height="220" fill="#ffffff" rx="10"/>
<line x1="46" y1="184.0" x2="674" y2="184.0" stroke="#ececf1"/><line x1="46" y1="145.0" x2="674" y2="145.0" stroke="#ececf1"/><line x1="46" y1="106.0" x2="674" y2="106.0" stroke="#ececf1"/><line x1="46" y1="67.0" x2="674" y2="67.0" stroke="#ececf1"/><line x1="46" y1="28.0" x2="674" y2="28.0" stroke="#ececf1"/><line x1="635.4" y1="28" x2="635.4" y2="184" stroke="#c9ccd6" stroke-dasharray="2 3"/><text x="635.4" y="20" text-anchor="middle" font-size="9" fill="#8a8d99">v1.0.2</text><line x1="655.2" y1="28" x2="655.2" y2="184" stroke="#c9ccd6" stroke-dasharray="2 3"/><text x="655.2" y="20" text-anchor="middle" font-size="9" fill="#8a8d99">v1.0.3</text><line x1="662.7" y1="28" x2="662.7" y2="184" stroke="#c9ccd6" stroke-dasharray="2 3"/><text x="662.7" y="20" text-anchor="middle" font-size="9" fill="#8a8d99">v1.1.0</text>
<polyline points="46.0,61.4 94.9,61.1 143.3,61.1 192.2,59.9 318.6,60.0 375.6,57.9 550.9,35.5 583.7,35.5 623.1,35.2 635.4,33.6 649.3,31.8 655.2,31.8 662.7,31.8 668.9,28.6 674.0,28.0" fill="none" stroke="#d98a2b" stroke-width="2" stroke-linejoin="round"/>
<polyline points="46.0,100.7 94.9,96.4 143.3,96.4 192.2,92.1 318.6,85.7 375.6,79.3 550.9,40.8 583.7,32.3 623.1,28.0 635.4,28.0 649.3,28.0 655.2,28.0 662.7,28.0 668.9,28.0 674.0,28.0" fill="none" stroke="#3d7ab5" stroke-width="2.4" stroke-linejoin="round"/>
<text x="38" y="32" text-anchor="end" font-size="10" fill="#3d7ab5">73</text><text x="38" y="188" text-anchor="end" font-size="10" fill="#3d7ab5">0</text>
<text x="682" y="32" font-size="10" fill="#d98a2b">2950</text><text x="682" y="188" font-size="10" fill="#d98a2b">0</text>
<text x="46" y="208" font-size="10" fill="#8a8d99">Oct 2 11:09</text><text x="674" y="208" text-anchor="end" font-size="10" fill="#8a8d99">Oct 2 17:34</text>
<text x="360.0" y="208" text-anchor="middle" font-size="10" fill="#8a8d99"><tspan fill="#3d7ab5">techs researched</tspan>  and  <tspan fill="#d98a2b">entities built</tspan>, one row per commit</text>
</svg>