<svg xmlns="http://www.w3.org/2000/svg" viewBox="0 0 720 220" width="720" height="220" font-family="-apple-system,Helvetica,Arial,sans-serif">
<rect width="720" height="220" fill="#ffffff" rx="10"/>
<line x1="46" y1="184.0" x2="674" y2="184.0" stroke="#ececf1"/><line x1="46" y1="145.0" x2="674" y2="145.0" stroke="#ececf1"/><line x1="46" y1="106.0" x2="674" y2="106.0" stroke="#ececf1"/><line x1="46" y1="67.0" x2="674" y2="67.0" stroke="#ececf1"/><line x1="46" y1="28.0" x2="674" y2="28.0" stroke="#ececf1"/><line x1="529.6" y1="28" x2="529.6" y2="184" stroke="#c9ccd6" stroke-dasharray="2 3"/><text x="529.6" y="20" text-anchor="middle" font-size="9" fill="#8a8d99">v1.2.0</text><line x1="549.2" y1="28" x2="549.2" y2="184" stroke="#c9ccd6" stroke-dasharray="2 3"/><text x="549.2" y="20" text-anchor="middle" font-size="9" fill="#8a8d99">v1.2.1</text><line x1="553.7" y1="28" x2="553.7" y2="184" stroke="#c9ccd6" stroke-dasharray="2 3"/><text x="553.7" y="20" text-anchor="middle" font-size="9" fill="#8a8d99">v1.3.0</text><line x1="565.7" y1="28" x2="565.7" y2="184" stroke="#c9ccd6" stroke-dasharray="2 3"/><text x="565.7" y="20" text-anchor="middle" font-size="9" fill="#8a8d99">v1.4.0</text><line x1="572.6" y1="28" x2="572.6" y2="184" stroke="#c9ccd6" stroke-dasharray="2 3"/><text x="572.6" y="20" text-anchor="middle" font-size="9" fill="#8a8d99">v1.5.0</text><line x1="601.1" y1="28" x2="601.1" y2="184" stroke="#c9ccd6" stroke-dasharray="2 3"/><text x="601.1" y="20" text-anchor="middle" font-size="9" fill="#8a8d99">v1.6.0</text>
<polyline points="46.0,100.3 80.3,100.1 114.3,100.1 148.6,99.3 237.3,99.4 277.3,97.9 400.3,82.6 423.4,82.6 451.0,82.4 485.3,77.5 518.1,74.8 529.6,74.4 549.2,71.6 551.5,71.6 553.7,69.5 565.7,41.7 572.6,30.5 601.1,30.1 638.3,30.1 662.0,31.4 669.2,28.0 674.0,29.2" fill="none" stroke="#d98a2b" stroke-width="2" stroke-linejoin="round"/>
<polyline points="46.0,100.7 80.3,96.4 114.3,96.4 148.6,92.1 237.3,85.7 277.3,79.3 400.3,40.8 423.4,32.3 451.0,28.0 485.3,28.0 518.1,28.0 529.6,28.0 549.2,28.0 551.5,28.0 553.7,28.0 565.7,28.0 572.6,28.0 601.1,28.0 638.3,28.0 662.0,28.0 669.2,28.0 674.0,28.0" fill="none" stroke="#3d7ab5" stroke-width="2.4" stroke-linejoin="round"/>
<text x="38" y="32" text-anchor="end" font-size="10" fill="#3d7ab5">73</text><text x="38" y="188" text-anchor="end" font-size="10" fill="#3d7ab5">0</text>
<text x="682" y="32" font-size="10" fill="#d98a2b">4321</text><text x="682" y="188" font-size="10" fill="#d98a2b">0</text>
<text x="46" y="208" font-size="10" fill="#8a8d99">Oct 2 11:09</text><text x="674" y="208" text-anchor="end" font-size="10" fill="#8a8d99">Oct 2 20:18</text>
<text x="360.0" y="208" text-anchor="middle" font-size="10" fill="#8a8d99"><tspan fill="#3d7ab5">techs researched</tspan>  and  <tspan fill="#d98a2b">entities built</tspan>, one row per commit</text>
</svg>