<svg xmlns="http://www.w3.org/2000/svg" viewBox="0 0 720 220" width="720" height="220" font-family="-apple-system,Helvetica,Arial,sans-serif">
<rect width="720" height="220" fill="#ffffff" rx="10"/>
<line x1="46" y1="184.0" x2="674" y2="184.0" stroke="#ececf1"/><line x1="46" y1="145.0" x2="674" y2="145.0" stroke="#ececf1"/><line x1="46" y1="106.0" x2="674" y2="106.0" stroke="#ececf1"/><line x1="46" y1="67.0" x2="674" y2="67.0" stroke="#ececf1"/><line x1="46" y1="28.0" x2="674" y2="28.0" stroke="#ececf1"/><line x1="593.1" y1="28" x2="593.1" y2="184" stroke="#c9ccd6" stroke-dasharray="2 3"/><text x="593.1" y="20" text-anchor="middle" font-size="9" fill="#8a8d99">v1.2.0</text><line x1="615.3" y1="28" x2="615.3" y2="184" stroke="#c9ccd6" stroke-dasharray="2 3"/><text x="615.3" y="20" text-anchor="middle" font-size="9" fill="#8a8d99">v1.2.1</text><line x1="620.4" y1="28" x2="620.4" y2="184" stroke="#c9ccd6" stroke-dasharray="2 3"/><text x="620.4" y="20" text-anchor="middle" font-size="9" fill="#8a8d99">v1.3.0</text><line x1="634.0" y1="28" x2="634.0" y2="184" stroke="#c9ccd6" stroke-dasharray="2 3"/><text x="634.0" y="20" text-anchor="middle" font-size="9" fill="#8a8d99">v1.4.0</text><line x1="641.8" y1="28" x2="641.8" y2="184" stroke="#c9ccd6" stroke-dasharray="2 3"/><text x="641.8" y="20" text-anchor="middle" font-size="9" fill="#8a8d99">v1.5.0</text><line x1="674.0" y1="28" x2="674.0" y2="184" stroke="#c9ccd6" stroke-dasharray="2 3"/><text x="674.0" y="20" text-anchor="middle" font-size="9" fill="#8a8d99">v1.6.0</text>
<polyline points="46.0,99.2 84.8,98.9 123.3,98.9 162.1,98.1 262.5,98.2 307.7,96.7 446.8,81.2 472.9,81.2 504.2,81.0 543.0,76.0 580.1,73.3 593.1,72.9 615.3,70.0 617.9,70.0 620.4,67.9 634.0,39.7 641.8,28.4 674.0,28.0" fill="none" stroke="#d98a2b" stroke-width="2" stroke-linejoin="round"/>
<polyline points="46.0,100.7 84.8,96.4 123.3,96.4 162.1,92.1 262.5,85.7 307.7,79.3 446.8,40.8 472.9,32.3 504.2,28.0 543.0,28.0 580.1,28.0 593.1,28.0 615.3,28.0 617.9,28.0 620.4,28.0 634.0,28.0 641.8,28.0 674.0,28.0" fill="none" stroke="#3d7ab5" stroke-width="2.4" stroke-linejoin="round"/>
<text x="38" y="32" text-anchor="end" font-size="10" fill="#3d7ab5">73</text><text x="38" y="188" text-anchor="end" font-size="10" fill="#3d7ab5">0</text>
<text x="682" y="32" font-size="10" fill="#d98a2b">4262</text><text x="682" y="188" font-size="10" fill="#d98a2b">0</text>
<text x="46" y="208" font-size="10" fill="#8a8d99">Oct 2 11:09</text><text x="674" y="208" text-anchor="end" font-size="10" fill="#8a8d99">Oct 2 19:15</text>
<text x="360.0" y="208" text-anchor="middle" font-size="10" fill="#8a8d99"><tspan fill="#3d7ab5">techs researched</tspan>  and  <tspan fill="#d98a2b">entities built</tspan>, one row per commit</text>
</svg>