<svg xmlns="http://www.w3.org/2000/svg" viewBox="0 0 720 220" width="720" height="220" font-family="-apple-system,Helvetica,Arial,sans-serif">
<rect width="720" height="220" fill="#ffffff" rx="10"/>
<line x1="46" y1="184.0" x2="674" y2="184.0" stroke="#ececf1"/><line x1="46" y1="145.0" x2="674" y2="145.0" stroke="#ececf1"/><line x1="46" y1="106.0" x2="674" y2="106.0" stroke="#ececf1"/><line x1="46" y1="67.0" x2="674" y2="67.0" stroke="#ececf1"/><line x1="46" y1="28.0" x2="674" y2="28.0" stroke="#ececf1"/><line x1="640.2" y1="28" x2="640.2" y2="184" stroke="#c9ccd6" stroke-dasharray="2 3"/><text x="640.2" y="20" text-anchor="middle" font-size="9" fill="#8a8d99">v1.0.2</text><line x1="660.2" y1="28" x2="660.2" y2="184" stroke="#c9ccd6" stroke-dasharray="2 3"/><text x="660.2" y="20" text-anchor="middle" font-size="9" fill="#8a8d99">v1.0.3</text><line x1="667.8" y1="28" x2="667.8" y2="184" stroke="#c9ccd6" stroke-dasharray="2 3"/><text x="667.8" y="20" text-anchor="middle" font-size="9" fill="#8a8d99">v1.1.0</text>
<polyline points="46.0,60.9 95.3,60.6 144.1,60.6 193.4,59.4 320.9,59.5 378.3,57.4 555.0,34.9 588.1,34.9 627.8,34.6 640.2,33.0 654.3,31.2 660.2,31.2 667.8,31.2 674.0,28.0" fill="none" stroke="#d98a2b" stroke-width="2" stroke-linejoin="round"/>
<polyline points="46.0,100.7 95.3,96.4 144.1,96.4 193.4,92.1 320.9,85.7 378.3,79.3 555.0,40.8 588.1,32.3 627.8,28.0 640.2,28.0 654.3,28.0 660.2,28.0 667.8,28.0 674.0,28.0" fill="none" stroke="#3d7ab5" stroke-width="2.4" stroke-linejoin="round"/>
<text x="38" y="32" text-anchor="end" font-size="10" fill="#3d7ab5">73</text><text x="38" y="188" text-anchor="end" font-size="10" fill="#3d7ab5">0</text>
<text x="682" y="32" font-size="10" fill="#d98a2b">2938</text><text x="682" y="188" font-size="10" fill="#d98a2b">0</text>
<text x="46" y="208" font-size="10" fill="#8a8d99">Oct 2 11:09</text><text x="674" y="208" text-anchor="end" font-size="10" fill="#8a8d99">Oct 2 17:31</text>
<text x="360.0" y="208" text-anchor="middle" font-size="10" fill="#8a8d99"><tspan fill="#3d7ab5">techs researched</tspan>  and  <tspan fill="#d98a2b">entities built</tspan>, one row per commit</text>
</svg>